<?xml version="1.0" encoding="UTF-8" standalone="no"?>
<!-- Created with sK1/UniConvertor (http://sk1project.org/) -->

<svg
   xmlns:dc="http://purl.org/dc/elements/1.1/"
   xmlns:cc="http://creativecommons.org/ns#"
   xmlns:rdf="http://www.w3.org/1999/02/22-rdf-syntax-ns#"
   xmlns:svg="http://www.w3.org/2000/svg"
   xmlns="http://www.w3.org/2000/svg"
   xmlns:sodipodi="http://sodipodi.sourceforge.net/DTD/sodipodi-0.dtd"
   xmlns:inkscape="http://www.inkscape.org/namespaces/inkscape"
   width="601.99487"
   height="122.505"
   viewBox="0 0 481.59592 98.003993"
   id="svg2"
   version="1.1"
   inkscape:version="0.48.4 r9939"
   sodipodi:docname="01-femlogo.cdr"
   style="fill-rule:evenodd">
  <metadata
     id="metadata22">
    <rdf:RDF>
      <cc:Work
         rdf:about="">
        <dc:format>image/svg+xml</dc:format>
        <dc:type
           rdf:resource="http://purl.org/dc/dcmitype/StillImage" />
        <dc:title></dc:title>
      </cc:Work>
    </rdf:RDF>
  </metadata>
  <sodipodi:namedview
     pagecolor="#ffffff"
     bordercolor="#666666"
     borderopacity="1"
     objecttolerance="10"
     gridtolerance="10"
     guidetolerance="10"
     inkscape:pageopacity="0"
     inkscape:pageshadow="2"
     inkscape:window-width="640"
     inkscape:window-height="480"
     id="namedview20"
     showgrid="false"
     fit-margin-top="0"
     fit-margin-left="0"
     fit-margin-right="0"
     fit-margin-bottom="0"
     inkscape:zoom="0.22425732"
     inkscape:cx="301.16611"
     inkscape:cy="60.711248"
     inkscape:window-x="65"
     inkscape:window-y="24"
     inkscape:window-maximized="0"
     inkscape:current-layer="svg2" />
  <defs
     id="defs4">
    <marker
       id="ArrowEnd"
       viewBox="0 0 10 10"
       refX="0"
       refY="5"
       markerUnits="strokeWidth"
       markerWidth="4"
       markerHeight="3"
       orient="auto">
      <path
         d="M 0,0 10,5 0,10 z"
         id="path7"
         inkscape:connector-curvature="0" />
    </marker>
    <marker
       id="ArrowStart"
       viewBox="0 0 10 10"
       refX="10"
       refY="5"
       markerUnits="strokeWidth"
       markerWidth="4"
       markerHeight="3"
       orient="auto">
      <path
         d="M 10,0 0,5 10,10 z"
         id="path10"
         inkscape:connector-curvature="0" />
    </marker>
  </defs>
  <g
     id="g12"
     transform="translate(-56.7051,-371.51004)">
    <g
       id="g14">
      <path
         style="fill:#000000;stroke:none"
         d="m 434.32,435.886 0,-11.665 13.97,-51.127 20.45,0 -3.24,11.234 1.584,-2.016 1.224,-1.585 3.601,-2.808 3.24,-2.016 3.169,-1.584 2.808,-1.225 2.376,-0.792 2.809,-0.792 17.21,2.377 -2.809,10.441 1.585,-2.016 1.224,-1.585 1.8,-1.512 1.8,-1.296 3.169,-2.016 3.24,-1.584 2.808,-1.225 2.377,-0.792 2.808,-0.792 16.778,2.377 -17.21,61.999 -17.57,0 12.817,-45.581 -3.6,1.584 -1.728,1.008 -1.513,1.008 -3.168,2.808 -2.808,2.809 -2.377,3.168 -2.448,3.601 -1.944,3.6 -2.016,3.601 -3.241,6.84 -2.376,6.409 -2.016,6.769 -0.792,2.376 -17.571,0 12.386,-45.581 -1.584,0.792 -1.657,0.792 -3.168,2.016 -3.24,2.376 -2.737,2.809 -2.448,3.24 -2.376,3.169 -2.017,3.6 -2.016,3.24 -1.584,3.601 -1.584,3.168 -2.376,5.977 -0.865,2.448 -0.36,2.016 -0.792,2.377 -1.224,3.96 -16.778,0 z m 0,-50.91 3.168,-11.882 -3.168,0 0,11.882 z m 0,-11.882 0,11.882 -0.792,2.952 -29.236,-0.432 -2.808,9.217 29.596,0 -3.961,14.834 -30.028,0 -2.376,9.577 29.596,0 -4.033,14.762 -47.598,0 0,-13.106 13.61,-49.686 48.03,0 z m 0,51.127 -3.24,11.665 3.24,0 0,-11.665 z m -61.64,-38.165 3.601,-12.962 -3.601,0 0,12.962 z m 0,-12.962 0,12.962 -0.36,1.44 -28.803,0 -2.449,9.217 28.444,0 -4.033,14.834 -28.371,0 -6.841,24.339 -21.963,0 17.57,-62.792 46.806,0 z m 0,49.686 -3.6,13.106 3.6,0 0,-13.106 z m -256.784,20.667 0,-0.504 38.813,-13.826 -7.201,40.397 -31.612,-26.067 z m 0,-15.266 0,-0.648 0.433,0 -0.433,0.648 z m 97.645,39.749 -52.423,-18.794 42.773,-35.212 9.65,54.006 z m 81.946,-32.044 -74.385,0 37.228,-62.792 37.157,62.792 z m -179.591,-8.353 0,0.648 -15.625,26.139 -13.1781,-22.683 0,-4.104 28.8031,0 z m 0,15.41 -0.36,0.144 0.36,0.36 0,-0.504 z m -28.8031,-24.267 0,-2.808 2.3763,0.864 -2.3763,1.944 z m -30.3878,-10.369 3.1684,-16.778 13.6097,11.161 -16.7781,5.617 z m 30.3878,7.561 0,2.808 -15.626,12.817 -4.3925,-22.394 20.0185,6.769 z m 0,11.665 -2.3763,0 2.3763,4.104 0,-4.104 z"
         id="path16"
         inkscape:connector-curvature="0" />
    </g>
  </g>
  <g
     id="g18"
     transform="translate(-56.7051,-371.51004)" />
</svg>
