<?xml version="1.0" encoding="UTF-8" standalone="no"?>
<!-- Created with Inkscape (http://www.inkscape.org/) -->

<svg
   xmlns:osb="http://www.openswatchbook.org/uri/2009/osb"
   xmlns:dc="http://purl.org/dc/elements/1.1/"
   xmlns:cc="http://creativecommons.org/ns#"
   xmlns:rdf="http://www.w3.org/1999/02/22-rdf-syntax-ns#"
   xmlns:svg="http://www.w3.org/2000/svg"
   xmlns="http://www.w3.org/2000/svg"
   xmlns:xlink="http://www.w3.org/1999/xlink"
   xmlns:sodipodi="http://sodipodi.sourceforge.net/DTD/sodipodi-0.dtd"
   xmlns:inkscape="http://www.inkscape.org/namespaces/inkscape"
   id="svg2"
   sodipodi:version="0.32"
   inkscape:version="0.48.4 r9939"
   width="100"
   height="200"
   version="1.0"
   sodipodi:docname="bigplay_svg.svg"
   inkscape:output_extension="org.inkscape.output.svg.inkscape"
   inkscape:export-filename="/home/meise/projects/voc/frontends/30c3/content/img/bigplay_png.png"
   inkscape:export-xdpi="90"
   inkscape:export-ydpi="90">
  <metadata
     id="metadata7">
    <rdf:RDF>
      <cc:Work
         rdf:about="">
        <dc:format>image/svg+xml</dc:format>
        <dc:type
           rdf:resource="http://purl.org/dc/dcmitype/StillImage" />
        <dc:title></dc:title>
      </cc:Work>
    </rdf:RDF>
  </metadata>
  <defs
     id="defs5">
    <linearGradient
       id="linearGradient6003"
       osb:paint="solid">
      <stop
         style="stop-color:#000000;stop-opacity:1;"
         offset="0"
         id="stop6005" />
    </linearGradient>
    <linearGradient
       id="linearGradient5987"
       osb:paint="solid">
      <stop
         style="stop-color:#000000;stop-opacity:1;"
         offset="0"
         id="stop5989" />
    </linearGradient>
    <filter
       id="filter3502"
       inkscape:label="Invert"
       x="0"
       y="0"
       width="1"
       height="1"
       inkscape:menu="Color"
       inkscape:menu-tooltip="Invert colors"
       color-interpolation-filters="sRGB">
      <feColorMatrix
         id="feColorMatrix3504"
         type="saturate"
         values="1"
         result="fbSourceGraphic" />
      <feColorMatrix
         id="feColorMatrix3506"
         in="fbSourceGraphic"
         values="-1 0 0 0 1 0 -1 0 0 1 0 0 -1 0 1 0 0 0 1 0 "
         result="fbSourceGraphic" />
      <feColorMatrix
         result="fbSourceGraphicAlpha"
         in="fbSourceGraphic"
         values="0 0 0 -1 0 0 0 0 -1 0 0 0 0 -1 0 0 0 0 1 0"
         id="feColorMatrix3632" />
      <feColorMatrix
         id="feColorMatrix3634"
         type="saturate"
         values="1"
         result="fbSourceGraphic"
         in="fbSourceGraphic" />
      <feColorMatrix
         id="feColorMatrix3636"
         in="fbSourceGraphic"
         values="-1 0 0 0 1 0 -1 0 0 1 0 0 -1 0 1 0 0 0 1 0 " />
    </filter>
    <filter
       id="filter3508"
       inkscape:label="Invert"
       x="0"
       y="0"
       width="1"
       height="1"
       inkscape:menu="Color"
       inkscape:menu-tooltip="Invert colors"
       color-interpolation-filters="sRGB">
      <feColorMatrix
         id="feColorMatrix3510"
         type="saturate"
         values="1"
         result="fbSourceGraphic" />
      <feColorMatrix
         id="feColorMatrix3512"
         in="fbSourceGraphic"
         values="-1 0 0 0 1 0 -1 0 0 1 0 0 -1 0 1 0 0 0 1 0 "
         result="fbSourceGraphic" />
      <feColorMatrix
         result="fbSourceGraphicAlpha"
         in="fbSourceGraphic"
         values="0 0 0 -1 0 0 0 0 -1 0 0 0 0 -1 0 0 0 0 1 0"
         id="feColorMatrix3638" />
      <feColorMatrix
         id="feColorMatrix3640"
         type="saturate"
         values="1"
         result="fbSourceGraphic"
         in="fbSourceGraphic" />
      <feColorMatrix
         id="feColorMatrix3642"
         in="fbSourceGraphic"
         values="-1 0 0 0 1 0 -1 0 0 1 0 0 -1 0 1 0 0 0 1 0 " />
    </filter>
    <filter
       id="filter3508-8"
       inkscape:label="Invert"
       x="0"
       y="0"
       width="1"
       height="1"
       inkscape:menu="Color"
       inkscape:menu-tooltip="Invert colors"
       color-interpolation-filters="sRGB">
      <feColorMatrix
         id="feColorMatrix3510-4"
         type="saturate"
         values="1"
         result="fbSourceGraphic" />
      <feColorMatrix
         id="feColorMatrix3512-4"
         in="fbSourceGraphic"
         values="-1 0 0 0 1 0 -1 0 0 1 0 0 -1 0 1 0 0 0 1 0 "
         result="fbSourceGraphic" />
      <feColorMatrix
         result="fbSourceGraphicAlpha"
         in="fbSourceGraphic"
         values="0 0 0 -1 0 0 0 0 -1 0 0 0 0 -1 0 0 0 0 1 0"
         id="feColorMatrix3638-6" />
      <feColorMatrix
         id="feColorMatrix3640-0"
         type="saturate"
         values="1"
         result="fbSourceGraphic"
         in="fbSourceGraphic" />
      <feColorMatrix
         id="feColorMatrix3642-3"
         in="fbSourceGraphic"
         values="-1 0 0 0 1 0 -1 0 0 1 0 0 -1 0 1 0 0 0 1 0 "
         result="fbSourceGraphic" />
      <feColorMatrix
         result="fbSourceGraphicAlpha"
         in="fbSourceGraphic"
         values="0 0 0 -1 0 0 0 0 -1 0 0 0 0 -1 0 0 0 0 1 0"
         id="feColorMatrix6124" />
      <feColorMatrix
         id="feColorMatrix6126"
         type="saturate"
         values="1"
         result="fbSourceGraphic"
         in="fbSourceGraphic" />
      <feColorMatrix
         id="feColorMatrix6128"
         in="fbSourceGraphic"
         values="-1 0 0 0 1 0 -1 0 0 1 0 0 -1 0 1 0 0 0 1 0 " />
    </filter>
    <filter
       id="filter3502-5"
       inkscape:label="Invert"
       x="0"
       y="0"
       width="1"
       height="1"
       inkscape:menu="Color"
       inkscape:menu-tooltip="Invert colors"
       color-interpolation-filters="sRGB">
      <feColorMatrix
         id="feColorMatrix3504-7"
         type="saturate"
         values="1"
         result="fbSourceGraphic" />
      <feColorMatrix
         id="feColorMatrix3506-0"
         in="fbSourceGraphic"
         values="-1 0 0 0 1 0 -1 0 0 1 0 0 -1 0 1 0 0 0 1 0 "
         result="fbSourceGraphic" />
      <feColorMatrix
         result="fbSourceGraphicAlpha"
         in="fbSourceGraphic"
         values="0 0 0 -1 0 0 0 0 -1 0 0 0 0 -1 0 0 0 0 1 0"
         id="feColorMatrix3632-4" />
      <feColorMatrix
         id="feColorMatrix3634-6"
         type="saturate"
         values="1"
         result="fbSourceGraphic"
         in="fbSourceGraphic" />
      <feColorMatrix
         id="feColorMatrix3636-1"
         in="fbSourceGraphic"
         values="-1 0 0 0 1 0 -1 0 0 1 0 0 -1 0 1 0 0 0 1 0 "
         result="fbSourceGraphic" />
      <feColorMatrix
         result="fbSourceGraphicAlpha"
         in="fbSourceGraphic"
         values="0 0 0 -1 0 0 0 0 -1 0 0 0 0 -1 0 0 0 0 1 0"
         id="feColorMatrix6118" />
      <feColorMatrix
         id="feColorMatrix6120"
         type="saturate"
         values="1"
         result="fbSourceGraphic"
         in="fbSourceGraphic" />
      <feColorMatrix
         id="feColorMatrix6122"
         in="fbSourceGraphic"
         values="-1 0 0 0 1 0 -1 0 0 1 0 0 -1 0 1 0 0 0 1 0 " />
    </filter>
    <linearGradient
       inkscape:collect="always"
       xlink:href="#linearGradient5987"
       id="linearGradient5991"
       x1="5.9062519"
       y1="136.28049"
       x2="30.392361"
       y2="136.28049"
       gradientUnits="userSpaceOnUse"
       gradientTransform="translate(0.55000001,0)" />
    <linearGradient
       inkscape:collect="always"
       xlink:href="#linearGradient5987"
       id="linearGradient5993"
       x1="3.6862815e-09"
       y1="154.09518"
       x2="100"
       y2="154.09518"
       gradientUnits="userSpaceOnUse"
       gradientTransform="translate(0.55000001,0)" />
    <filter
       id="filter3508-8-3"
       inkscape:label="Invert"
       x="0"
       y="0"
       width="1"
       height="1"
       inkscape:menu="Color"
       inkscape:menu-tooltip="Invert colors"
       color-interpolation-filters="sRGB">
      <feColorMatrix
         id="feColorMatrix3510-4-6"
         type="saturate"
         values="1"
         result="fbSourceGraphic" />
      <feColorMatrix
         id="feColorMatrix3512-4-2"
         in="fbSourceGraphic"
         values="-1 0 0 0 1 0 -1 0 0 1 0 0 -1 0 1 0 0 0 1 0 "
         result="fbSourceGraphic" />
      <feColorMatrix
         result="fbSourceGraphicAlpha"
         in="fbSourceGraphic"
         values="0 0 0 -1 0 0 0 0 -1 0 0 0 0 -1 0 0 0 0 1 0"
         id="feColorMatrix3638-6-7" />
      <feColorMatrix
         id="feColorMatrix3640-0-5"
         type="saturate"
         values="1"
         result="fbSourceGraphic"
         in="fbSourceGraphic" />
      <feColorMatrix
         id="feColorMatrix3642-3-9"
         in="fbSourceGraphic"
         values="-1 0 0 0 1 0 -1 0 0 1 0 0 -1 0 1 0 0 0 1 0 "
         result="fbSourceGraphic" />
      <feColorMatrix
         result="fbSourceGraphicAlpha"
         in="fbSourceGraphic"
         values="0 0 0 -1 0 0 0 0 -1 0 0 0 0 -1 0 0 0 0 1 0"
         id="feColorMatrix6136" />
      <feColorMatrix
         id="feColorMatrix6138"
         type="saturate"
         values="1"
         result="fbSourceGraphic"
         in="fbSourceGraphic" />
      <feColorMatrix
         id="feColorMatrix6140"
         in="fbSourceGraphic"
         values="-1 0 0 0 1 0 -1 0 0 1 0 0 -1 0 1 0 0 0 1 0 " />
    </filter>
    <filter
       id="filter3502-5-0"
       inkscape:label="Invert"
       x="0"
       y="0"
       width="1"
       height="1"
       inkscape:menu="Color"
       inkscape:menu-tooltip="Invert colors"
       color-interpolation-filters="sRGB">
      <feColorMatrix
         id="feColorMatrix3504-7-1"
         type="saturate"
         values="1"
         result="fbSourceGraphic" />
      <feColorMatrix
         id="feColorMatrix3506-0-6"
         in="fbSourceGraphic"
         values="-1 0 0 0 1 0 -1 0 0 1 0 0 -1 0 1 0 0 0 1 0 "
         result="fbSourceGraphic" />
      <feColorMatrix
         result="fbSourceGraphicAlpha"
         in="fbSourceGraphic"
         values="0 0 0 -1 0 0 0 0 -1 0 0 0 0 -1 0 0 0 0 1 0"
         id="feColorMatrix3632-4-0" />
      <feColorMatrix
         id="feColorMatrix3634-6-2"
         type="saturate"
         values="1"
         result="fbSourceGraphic"
         in="fbSourceGraphic" />
      <feColorMatrix
         id="feColorMatrix3636-1-6"
         in="fbSourceGraphic"
         values="-1 0 0 0 1 0 -1 0 0 1 0 0 -1 0 1 0 0 0 1 0 "
         result="fbSourceGraphic" />
      <feColorMatrix
         result="fbSourceGraphicAlpha"
         in="fbSourceGraphic"
         values="0 0 0 -1 0 0 0 0 -1 0 0 0 0 -1 0 0 0 0 1 0"
         id="feColorMatrix6130" />
      <feColorMatrix
         id="feColorMatrix6132"
         type="saturate"
         values="1"
         result="fbSourceGraphic"
         in="fbSourceGraphic" />
      <feColorMatrix
         id="feColorMatrix6134"
         in="fbSourceGraphic"
         values="-1 0 0 0 1 0 -1 0 0 1 0 0 -1 0 1 0 0 0 1 0 " />
    </filter>
  </defs>
  <sodipodi:namedview
     inkscape:window-height="1041"
     inkscape:window-width="1663"
     inkscape:pageshadow="2"
     inkscape:pageopacity="0"
     guidetolerance="10.0"
     gridtolerance="10.0"
     objecttolerance="10.0"
     borderopacity="1.0"
     bordercolor="#666666"
     pagecolor="#ffffff"
     id="base"
     width="930px"
     height="676.29px"
     inkscape:zoom="5.6568542"
     inkscape:cx="62.07429"
     inkscape:cy="95.505943"
     inkscape:window-x="253"
     inkscape:window-y="37"
     inkscape:current-layer="svg2"
     showgrid="false"
     inkscape:window-maximized="0"
     fit-margin-top="0"
     fit-margin-left="0"
     fit-margin-right="0"
     fit-margin-bottom="0" />
  <path
     style="fill:#000000;filter:url(#filter3502-5);stroke:none;stroke-opacity:1"
     d="m 83.626511,88.682399 c -2.18959,-1.4769 -3.34042,-3.86472 -3.55416,-7.37436 -0.15928,-2.61538 0.10218,-4.5863 1.22709,-9.25017 1.00465,-4.16524 1.13895,-4.99883 1.20297,-7.46659 l 0.0556,-2.14536 -0.31092,-0.57126 c -0.17101,-0.3142 -0.34072,-0.56799 -0.37714,-0.56399 -0.11285,0.0124 -1.48259,1.63741 -2.3148,2.74621 -1.81471,2.41782 -2.84463,4.80271 -3.03217,7.02131 l -0.0726,0.85844 -0.58558,0.12156 c -1.17964,0.2449 -1.20784,0.23684 -1.37417,-0.39241 -0.22229,-0.84091 -0.11731,-2.94134 0.19316,-3.86488 0.42107,-1.25255 1.36613,-3.00697 2.71698,-5.04383 1.49962,-2.26116 2.47728,-4.04687 2.83726,-5.18229 0.29464,-0.92931 0.33007,-0.95084 1.72802,-1.05007 l 0.97023,-0.0689 0.34687,0.88343 c 0.82612,2.10396 1.1302,3.58352 1.22913,5.9806 0.11302,2.73852 -0.17585,5.18324 -1.31709,11.14657 -0.98914,5.16856 -0.97702,5.0504 -0.683,6.65785 0.50776,2.77612 1.20596,4.38424 2.51595,5.7949 0.3157,0.33995 0.32547,0.38211 0.24667,1.06425 -0.0451,0.39065 -0.12497,0.8237 -0.17744,0.96233 -0.1501,0.39662 -0.61622,0.31316 -1.47095,-0.26336 z m -10.04241,-11.10593 -0.4899,-0.0436 0.0602,-0.449 c 0.0924,-0.68891 0.53506,-1.26159 1.24279,-1.60786 0.54896,-0.26858 0.8041,-0.31122 2.38626,-0.39886 0.97436,-0.0539 1.96061,-0.10004 2.19166,-0.10238 l 0.42011,-0.004 0,1.06211 c 0,1.25541 0.3214,1.08138 -2.58381,1.39908 -2.04291,0.2234 -2.24197,0.23233 -3.22733,0.14472 z m 10.11291,-1.43447 c -0.0927,-0.36914 0.0262,-1.10313 0.24798,-1.5321 0.26556,-0.51354 1.0162,-1.28142 1.94774,-1.99247 0.96006,-0.73282 1.79316,-1.58777 2.07129,-2.12563 0.59887,-1.15808 1.00454,-4.98844 0.73918,-6.97934 -0.36146,-2.7119 -1.76491,-5.73098 -3.59485,-7.73323 -0.30796,-0.33696 -0.55993,-0.66238 -0.55993,-0.72316 0,-0.0608 0.53765,-0.60824 1.19477,-1.21658 0.84232,-0.77978 1.21053,-1.05649 1.24819,-0.93803 0.14826,0.46635 2.01779,3.95395 2.43775,4.54761 0.90863,1.28446 2.11463,2.19996 3.29905,2.50437 0.27623,0.071 0.6923,0.20213 0.9246,0.29142 0.61148,0.23502 1.45107,0.20047 2.86068,-0.11773 2.1088,-0.47604 2.78013,-0.34075 3.26343,0.65763 0.400779,0.82789 0.320459,0.97398 -0.72911,1.32611 -1.84049,0.61745 -4.2656,0.64411 -6.69614,0.0736 -0.74875,-0.17575 -1.02245,-0.20099 -1.12026,-0.10329 -0.14695,0.14675 -0.15489,1.11228 -0.0222,2.695 0.0745,0.88788 0.0489,1.27455 -0.15409,2.33322 -0.61711,3.21807 -1.82293,5.57324 -3.80094,7.42389 -0.78023,0.72999 -1.0639,0.92256 -1.57653,1.07022 -0.34382,0.099 -0.91397,0.32503 -1.26701,0.50219 l -0.64189,0.32211 z m -6.34467,-19.76725 c -0.16858,-0.0508 -0.48365,-0.20178 -0.70017,-0.33559 -0.32301,-0.19964 -0.39366,-0.31042 -0.39366,-0.61733 l 0,-0.37404 0.75618,-0.074 c 1.88898,-0.18493 3.41427,-0.80872 4.9166,-2.01074 1.6027,-1.28232 2.99085,-3.13062 5.24974,-6.98992 0.72699,-1.24206 1.18558,-1.91531 1.30634,-1.91782 0.22645,-0.004 0.74083,0.58449 0.83385,0.9551 0.14989,0.59724 -0.7109,3.4734 -1.53248,5.12048 -1.58694,3.18141 -4.25084,5.34645 -7.55331,6.13883 -0.91885,0.22046 -2.32914,0.27185 -2.88309,0.10505 z m -55.818428,-1.56791 -18.1481791,-0.057 -0.364834,-0.26022 c -0.458885,-0.3273 -1.15962,-1.75067 -1.471271,-2.98853 -0.537901,-2.13652 -0.84950201,-4.47522 -1.02241901,-7.67376 -0.06495,-1.20148 -0.222973,-3.79768 -0.351151,-5.76933 -0.254462,-3.91413 -0.236156,-6.3639 0.07492,-10.02631 0.469429,-5.52681 1.32273701,-8.84164 2.46944001,-9.59299 0.315417,-0.20666 3.622537,-0.40789 14.3560301,-0.87349 10.096727,-0.43799 21.005122,-0.0779 27.137102,0.89581 1.38288,0.21959 1.63701,0.41398 2.30097,1.76006 0.67112,1.36059 1.05574,2.90709 1.15582,4.64731 0.10888,1.89339 0.0643,2.34138 -0.24092,2.42327 -0.3903,0.10471 -1.63912,0.0773 -1.85987,-0.0409 -0.31909,-0.17077 -0.54803,-0.8961 -0.73394,-2.32525 -0.39443,-3.03195 -0.93024,-3.74478 -3.22187,-4.28626 -2.5597,-0.60481 -6.45241,-0.83063 -14.198473,-0.82364 -7.527909,0.007 -13.342224,0.23845 -19.1761491,0.76403 -1.441687,0.12988 -1.85371,0.20765 -2.301028,0.43432 -1.159137,0.58738 -2.025017,1.9596 -2.555551,4.04998 -0.406513,1.60173 -0.488691,2.65327 -0.609135,7.7948 -0.173168,7.3921 0.1082,10.97163 1.16338,14.80037 0.637658,2.31375 1.167565,3.09918 2.54384,3.77049 1.530382,0.74649 0.931047,0.71989 16.1175301,0.71524 13.162606,-0.004 17.509066,-0.0865 19.217296,-0.36449 1.58966,-0.25872 2.50076,-1.90737 3.02385,-5.47166 0.244,-1.66266 0.27324,-1.76312 0.59742,-2.05278 0.65747,-0.58745 1.51915,-0.51675 1.88577,0.15472 0.32943,0.60339 0.26053,2.55435 -0.16138,4.56987 -0.54398,2.5986 -1.04249,4.3577 -1.33267,4.70256 -0.56633,0.67305 -2.23607,1.07513 -4.74603,1.14287 -0.77018,0.0208 -9.567,0.0122 -19.548498,-0.0192 z m 51.083758,-1.8388 c -0.7299,-0.18038 -1.16879,-0.41702 -1.69649,-0.91471 l -0.43002,-0.40555 0.26221,-0.21231 c 0.40592,-0.32871 1.28279,-0.54886 2.87253,-0.72123 0.80099,-0.0868 1.68319,-0.23157 1.96046,-0.32161 3.04706,-0.98948 4.9471,-2.20729 7.41005,-4.74941 1.20529,-1.24404 3.6862,-4.32109 3.86991,-4.79981 0.0372,-0.0971 0.23885,-0.15276 0.55288,-0.15276 0.57791,0 0.57695,-0.0666 0.0234,1.62073 -1.24999,3.80993 -3.82928,6.96312 -7.51433,9.18634 -0.82863,0.49991 -0.98556,0.54791 -3.51699,1.07553 -2.84843,0.59369 -2.94713,0.60396 -3.79356,0.39479 z m -15.40354,-13.01495 c 4.05282,-0.0468 7.45417,-0.0279 9.45637,0.0526 1.71981,0.0692 3.14863,0.10405 3.17517,0.0775 0.1115,-0.1115 -1.19823,-0.74073 -1.98156,-0.952 -1.54234,-0.41597 -2.24928,-0.46016 -9.02561,-0.56421 -3.69685,-0.0568 -9.69583,-0.16234 -13.33107,-0.23462 -10.04218,-0.19967 -1.4026,-0.19658 -2.26317,0.0398 -1.52048,0.4177 -2.85033,1.05764 -3.97691,1.91374 -1.13822,0.86494 -2.45063,2.33875 -5.57274,6.25805 l -3.36879,4.22897 -1.170516,0 c -0.987974,0 -1.160586,-0.0259 -1.106825,-0.16597 0.10794,-0.2813 4.218471,-5.98734 5.132901,-7.12525 1.88262,-2.34274 4.63315,-5.22697 5.67344,-5.94925 0.77417,-0.53751 2.1428,-0.97936 3.4801,-1.12352 1.59264,-0.17168 5.13095,-0.16545 15.2713,0.0118 8.60279,0.15039 8.36696,0.1306 10.82142,0.90807 0.76012,0.24078 1.40333,0.4165 1.42935,0.39048 0.026,-0.026 -0.0902,-0.22752 -0.25817,-0.44778 -0.39524,-0.51819 -1.27331,-1.09462 -2.19149,-1.43867 -1.53358,-0.57466 -2.05342,-0.61022 -10.80935,-0.73963 -7.89555,-0.11669 -1.89165,-0.20047 -11.33725,-0.49286 l -4.42502,-0.13697 -0.65688,-0.32759 c -1.15703,-0.57702 -2.0818,-1.59448 -6.64429,-7.31027 -2.42304,-3.03554 -4.405524,-5.54622 -4.405524,-5.5793 0,-0.11279 2.519994,0.0928 2.679914,0.21861 0.0876,0.069 1.2647,1.60415 2.61571,3.41155 2.9096,3.89253 3.7784,4.94631 5.11678,6.20621 1.3254,1.24767 2.54787,2.00923 3.37566,2.18344 1.59515,0.33571 -4.38059,-0.0403 5.31642,-0.17173 11.24205,-0.15241 15.01022,-0.0714 16.76642,0.36059 1.40238,0.34494 3.12443,0.94293 4.20063,1.45869 0.45423,0.21767 0.84548,0.37616 0.86946,0.35217 0.10454,-0.10453 -0.33413,-0.72942 -0.85226,-1.21408 -1.62521,-1.52019 -4.04562,-2.46724 -7.07449,-2.76807 -1.21347,-0.12053 -12.1932,-1.2443 -15.59293,-0.55595 -1.82206,0.36892 -2.51653,-0.6726 -2.29192,-1.63741 5.31369,-0.88344 13.84463,-0.11586 14.65318,-0.0475 3.79233,0.32056 6.82712,1.07807 9.46923,2.36363 1.28111,0.62334 1.42385,0.72699 2.33751,1.69731 1.71895,1.82556 3.38346,4.26528 4.33548,6.35465 l 0.43388,0.95223 -0.0406,-0.68263 c -0.0905,-1.5224 -2.3324,-5.23377 -5.84161,-9.6704 -0.65385,-0.82664 -1.18881,-1.54214 -1.18881,-1.59001 0,-0.16114 0.49551,-0.43582 0.78621,-0.43582 0.51172,0 1.83134,0.89077 2.43106,1.64101 3.06,3.82802 4.97166,6.94575 5.86272,9.56157 0.19939,0.58534 0.48137,1.18922 0.62662,1.34196 l 0.26408,0.27772 0.33887,-0.33888 0.33888,-0.33887 -0.28982,-1.00309 c -0.64721,-2.24006 -1.35319,-3.6252 -4.07471,-7.99463 -2.07652,-3.33388 -2.08949,-3.37084 -1.1824,-3.37084 0.39265,0 0.63193,0.1027 1.30258,0.55904 0.45187,0.30748 0.90156,0.62255 0.99932,0.70017 0.28637,0.22736 2.53014,4.03203 3.3085,5.61011 0.39336,0.79748 0.89597,2.03569 1.11693,2.75158 0.5857,1.8976 0.58763,1.89973 1.22514,1.33999 0.40794,-0.35817 0.41482,-0.37758 0.34964,-0.98605 -0.15204,-1.41922 -0.96762,-3.96633 -1.93473,-6.0423 -0.2697,-0.57892 -0.49036,-1.12005 -0.49036,-1.2025 0,-0.0824 0.14597,-0.31328 0.32437,-0.51295 0.3123,-0.34952 0.33629,-0.35688 0.64415,-0.19781 0.52084,0.26911 1.41409,1.24559 1.79488,1.9621 0.19516,0.36723 0.64355,1.63811 0.99641,2.82419 0.35286,1.18607 0.68185,2.15649 0.73108,2.15649 0.0492,0 0.2562,-0.20926 0.45992,-0.46502 0.94012,-1.18025 1.28101,-1.34456 1.75121,-0.84406 0.30407,0.32367 0.30927,0.74699 0.0195,1.58915 -0.29939,0.8702 -0.28776,1.11128 0.0613,1.27032 0.15693,0.0715 0.35858,0.13 0.4481,0.13 0.22011,0 0.20472,0.29112 -0.0554,1.04712 -0.76943,2.2364 -2.42858,4.20954 -5.04705,6.0022 -2.48738,1.70293 -5.71463,2.76735 -8.77522,2.89428 -1.51818,0.063 -2.40147,-0.11326 -3.15553,-0.62954 -0.57938,-0.39669 -0.60015,-0.74472 -0.0659,-1.10474 0.58363,-0.39332 1.35504,-0.57705 2.96555,-0.70633 5.00149,-0.4015 8.78635,-2.21897 11.53374,-5.53844 0.43119,-0.52097 0.44091,-0.54659 0.12997,-0.34257 -3.41169,2.2386 -7.12897,3.87297 -9.94533,4.37266 -0.84493,0.14991 -1.47231,0.18129 -2.74463,0.13726 -1.74759,-0.0605 -2.79087,-0.27036 -3.99846,-0.80441 -0.66778,-0.29533 -0.75297,-0.44834 -0.70401,-1.26459 l 0.0284,-0.47416 -9.18611,-0.0565 c -5.05237,-0.0311 -12.64079,0.85253 -11.77757,-1.1603 -0.0656,-0.79827 7.90427,-0.82876 11.38548,-0.869 z"
     id="path2161-6"
     inkscape:connector-curvature="0"
     sodipodi:nodetypes="sssscscsscsssssscssssssssscsssscssssssssssssssssssssssssscsssscsssssssssssssssssssssssssssssssssssssssssscsssssssssssscsssssscssssssscsssscsssssssssscsssscssscssssssscccsssscsssssssssssssssssssssssssssscsscs"
     inkscape:export-filename="/home/meise/downloads/Logo_CCCVOC_180x131.svg.png"
     inkscape:export-xdpi="90"
     inkscape:export-ydpi="90"
     transform="scale(0.99000004,1)" />
  <path
     style="fill:#000000;fill-opacity:1;filter:url(#filter3508-8)"
     d="m 18.149305,22.998849 c -6.761196,0 -12.2430531,5.58352 -12.2430531,12.47222 0,6.8887 5.4818571,12.47223 12.2430531,12.47223 6.761195,0 12.243056,-5.58353 12.243056,-12.47223 0,-6.8887 -5.481861,-12.47222 -12.243056,-12.47222 z m -5.12153,4.11805 6.868056,4.15278 6.868057,4.15625 -6.965279,3.98264 -6.965279,3.98264 0.09722,-8.13889 0.09722,-8.13542 z"
     id="path3041-7"
     inkscape:connector-curvature="0"
     inkscape:export-filename="/home/meise/downloads/Logo_CCCVOC_180x131.svg.png"
     inkscape:export-xdpi="90"
     inkscape:export-ydpi="90" />
  <path
     style="fill:#000000;stroke:#000000;stroke-opacity:1;filter:url(#filter3502-5-0)"
     d="m 83.626511,88.682399 c -2.18959,-1.4769 -3.34042,-3.86472 -3.55416,-7.37436 -0.15928,-2.61538 0.10218,-4.5863 1.22709,-9.25017 1.00465,-4.16524 1.13895,-4.99883 1.20297,-7.46659 l 0.0556,-2.14536 -0.31092,-0.57126 c -0.17101,-0.3142 -0.34072,-0.56799 -0.37714,-0.56399 -0.11285,0.0124 -1.48259,1.63741 -2.3148,2.74621 -1.81471,2.41782 -2.84463,4.80271 -3.03217,7.02131 l -0.0726,0.85844 -0.58558,0.12156 c -1.17964,0.2449 -1.20784,0.23684 -1.37417,-0.39241 -0.22229,-0.84091 -0.11731,-2.94134 0.19316,-3.86488 0.42107,-1.25255 1.36613,-3.00697 2.71698,-5.04383 1.49962,-2.26116 2.47728,-4.04687 2.83726,-5.18229 0.29464,-0.92931 0.33007,-0.95084 1.72802,-1.05007 l 0.97023,-0.0689 0.34687,0.88343 c 0.82612,2.10396 1.1302,3.58352 1.22913,5.9806 0.11302,2.73852 -0.17585,5.18324 -1.31709,11.14657 -0.98914,5.16856 -0.97702,5.0504 -0.683,6.65785 0.50776,2.77612 1.20596,4.38424 2.51595,5.7949 0.3157,0.33995 0.32547,0.38211 0.24667,1.06425 -0.0451,0.39065 -0.12497,0.8237 -0.17744,0.96233 -0.1501,0.39662 -0.61622,0.31316 -1.47095,-0.26336 z m -10.04241,-11.10593 -0.4899,-0.0436 0.0602,-0.449 c 0.0924,-0.68891 0.53506,-1.26159 1.24279,-1.60786 0.54896,-0.26858 0.8041,-0.31122 2.38626,-0.39886 0.97436,-0.0539 1.96061,-0.10004 2.19166,-0.10238 l 0.42011,-0.004 0,1.06211 c 0,1.25541 0.3214,1.08138 -2.58381,1.39908 -2.04291,0.2234 -2.24197,0.23233 -3.22733,0.14472 z m 10.11291,-1.43447 c -0.0927,-0.36914 0.0262,-1.10313 0.24798,-1.5321 0.26556,-0.51354 1.0162,-1.28142 1.94774,-1.99247 0.96006,-0.73282 1.79316,-1.58777 2.07129,-2.12563 0.59887,-1.15808 1.00454,-4.98844 0.73918,-6.97934 -0.36146,-2.7119 -1.76491,-5.73098 -3.59485,-7.73323 -0.30796,-0.33696 -0.55993,-0.66238 -0.55993,-0.72316 0,-0.0608 0.53765,-0.60824 1.19477,-1.21658 0.84232,-0.77978 1.21053,-1.05649 1.24819,-0.93803 0.14826,0.46635 2.01779,3.95395 2.43775,4.54761 0.90863,1.28446 2.11463,2.19996 3.29905,2.50437 0.27623,0.071 0.6923,0.20213 0.9246,0.29142 0.61148,0.23502 1.45107,0.20047 2.86068,-0.11773 2.1088,-0.47604 2.78013,-0.34075 3.26343,0.65763 0.400779,0.82789 0.320459,0.97398 -0.72911,1.32611 -1.84049,0.61745 -4.2656,0.64411 -6.69614,0.0736 -0.74875,-0.17575 -1.02245,-0.20099 -1.12026,-0.10329 -0.14695,0.14675 -0.15489,1.11228 -0.0222,2.695 0.0745,0.88788 0.0489,1.27455 -0.15409,2.33322 -0.61711,3.21807 -1.82293,5.57324 -3.80094,7.42389 -0.78023,0.72999 -1.0639,0.92256 -1.57653,1.07022 -0.34382,0.099 -0.91397,0.32503 -1.26701,0.50219 l -0.64189,0.32211 z m -6.34467,-19.76725 c -0.16858,-0.0508 -0.48365,-0.20178 -0.70017,-0.33559 -0.32301,-0.19964 -0.39366,-0.31042 -0.39366,-0.61733 l 0,-0.37404 0.75618,-0.074 c 1.88898,-0.18493 3.41427,-0.80872 4.9166,-2.01074 1.6027,-1.28232 2.99085,-3.13062 5.24974,-6.98992 0.72699,-1.24206 1.18558,-1.91531 1.30634,-1.91782 0.22645,-0.004 0.74083,0.58449 0.83385,0.9551 0.14989,0.59724 -0.7109,3.4734 -1.53248,5.12048 -1.58694,3.18141 -4.25084,5.34645 -7.55331,6.13883 -0.91885,0.22046 -2.32914,0.27185 -2.88309,0.10505 z m -55.818428,-1.56791 -18.1481791,-0.057 -0.364834,-0.26022 c -0.458885,-0.3273 -1.15962,-1.75067 -1.471271,-2.98853 -0.537901,-2.13652 -0.84950201,-4.47522 -1.02241901,-7.67376 -0.06495,-1.20148 -0.222973,-3.79768 -0.351151,-5.76933 -0.254462,-3.91413 -0.236156,-6.3639 0.07492,-10.02631 0.469429,-5.52681 1.32273701,-8.84164 2.46944001,-9.59299 0.315417,-0.20666 3.622537,-0.40789 14.3560301,-0.87349 10.096727,-0.43799 21.005122,-0.0779 27.137102,0.89581 1.38288,0.21959 1.63701,0.41398 2.30097,1.76006 0.67112,1.36059 1.05574,2.90709 1.15582,4.64731 0.10888,1.89339 0.0643,2.34138 -0.24092,2.42327 -0.3903,0.10471 -1.63912,0.0773 -1.85987,-0.0409 -0.31909,-0.17077 -0.54803,-0.8961 -0.73394,-2.32525 -0.39443,-3.03195 -0.93024,-3.74478 -3.22187,-4.28626 -2.5597,-0.60481 -6.45241,-0.83063 -14.198473,-0.82364 -7.527909,0.007 -13.342224,0.23845 -19.1761491,0.76403 -1.441687,0.12988 -1.85371,0.20765 -2.301028,0.43432 -1.159137,0.58738 -2.025017,1.9596 -2.555551,4.04998 -0.406513,1.60173 -0.488691,2.65327 -0.609135,7.7948 -0.173168,7.3921 0.1082,10.97163 1.16338,14.80037 0.637658,2.31375 1.167565,3.09918 2.54384,3.77049 1.530382,0.74649 0.931047,0.71989 16.1175301,0.71524 13.162606,-0.004 17.509066,-0.0865 19.217296,-0.36449 1.58966,-0.25872 2.50076,-1.90737 3.02385,-5.47166 0.244,-1.66266 0.27324,-1.76312 0.59742,-2.05278 0.65747,-0.58745 1.51915,-0.51675 1.88577,0.15472 0.32943,0.60339 0.26053,2.55435 -0.16138,4.56987 -0.54398,2.5986 -1.04249,4.3577 -1.33267,4.70256 -0.56633,0.67305 -2.23607,1.07513 -4.74603,1.14287 -0.77018,0.0208 -9.567,0.0122 -19.548498,-0.0192 z m 51.083758,-1.8388 c -0.7299,-0.18038 -1.16879,-0.41702 -1.69649,-0.91471 l -0.43002,-0.40555 0.26221,-0.21231 c 0.40592,-0.32871 1.28279,-0.54886 2.87253,-0.72123 0.80099,-0.0868 1.68319,-0.23157 1.96046,-0.32161 3.04706,-0.98948 4.9471,-2.20729 7.41005,-4.74941 1.20529,-1.24404 3.6862,-4.32109 3.86991,-4.79981 0.0372,-0.0971 0.23885,-0.15276 0.55288,-0.15276 0.57791,0 0.57695,-0.0666 0.0234,1.62073 -1.24999,3.80993 -3.82928,6.96312 -7.51433,9.18634 -0.82863,0.49991 -0.98556,0.54791 -3.51699,1.07553 -2.84843,0.59369 -2.94713,0.60396 -3.79356,0.39479 z m -15.40354,-13.01495 c 4.05282,-0.0468 7.45417,-0.0279 9.45637,0.0526 1.71981,0.0692 3.14863,0.10405 3.17517,0.0775 0.1115,-0.1115 -1.19823,-0.74073 -1.98156,-0.952 -1.54234,-0.41597 -2.24928,-0.46016 -9.02561,-0.56421 -3.69685,-0.0568 -9.69583,-0.16234 -13.33107,-0.23462 -10.04218,-0.19967 -1.4026,-0.19658 -2.26317,0.0398 -1.52048,0.4177 -2.85033,1.05764 -3.97691,1.91374 -1.13822,0.86494 -2.45063,2.33875 -5.57274,6.25805 l -3.36879,4.22897 -1.170516,0 c -0.987974,0 -1.160586,-0.0259 -1.106825,-0.16597 0.10794,-0.2813 4.218471,-5.98734 5.132901,-7.12525 1.88262,-2.34274 4.63315,-5.22697 5.67344,-5.94925 0.77417,-0.53751 2.1428,-0.97936 3.4801,-1.12352 1.59264,-0.17168 5.13095,-0.16545 15.2713,0.0118 8.60279,0.15039 8.36696,0.1306 10.82142,0.90807 0.76012,0.24078 1.40333,0.4165 1.42935,0.39048 0.026,-0.026 -0.0902,-0.22752 -0.25817,-0.44778 -0.39524,-0.51819 -1.27331,-1.09462 -2.19149,-1.43867 -1.53358,-0.57466 -2.05342,-0.61022 -10.80935,-0.73963 -7.89555,-0.11669 -1.89165,-0.20047 -11.33725,-0.49286 l -4.42502,-0.13697 -0.65688,-0.32759 c -1.15703,-0.57702 -2.0818,-1.59448 -6.64429,-7.31027 -2.42304,-3.03554 -4.405524,-5.54622 -4.405524,-5.5793 0,-0.11279 2.519994,0.0928 2.679914,0.21861 0.0876,0.069 1.2647,1.60415 2.61571,3.41155 2.9096,3.89253 3.7784,4.94631 5.11678,6.20621 1.3254,1.24767 2.54787,2.00923 3.37566,2.18344 1.59515,0.33571 -4.38059,-0.0403 5.31642,-0.17173 11.24205,-0.15241 15.01022,-0.0714 16.76642,0.36059 1.40238,0.34494 3.12443,0.94293 4.20063,1.45869 0.45423,0.21767 0.84548,0.37616 0.86946,0.35217 0.10454,-0.10453 -0.33413,-0.72942 -0.85226,-1.21408 -1.62521,-1.52019 -4.04562,-2.46724 -7.07449,-2.76807 -1.21347,-0.12053 -12.1932,-1.2443 -15.59293,-0.55595 -1.82206,0.36892 -2.51653,-0.6726 -2.29192,-1.63741 5.31369,-0.88344 13.84463,-0.11586 14.65318,-0.0475 3.79233,0.32056 6.82712,1.07807 9.46923,2.36363 1.28111,0.62334 1.42385,0.72699 2.33751,1.69731 1.71895,1.82556 3.38346,4.26528 4.33548,6.35465 l 0.43388,0.95223 -0.0406,-0.68263 c -0.0905,-1.5224 -2.3324,-5.23377 -5.84161,-9.6704 -0.65385,-0.82664 -1.18881,-1.54214 -1.18881,-1.59001 0,-0.16114 0.49551,-0.43582 0.78621,-0.43582 0.51172,0 1.83134,0.89077 2.43106,1.64101 3.06,3.82802 4.97166,6.94575 5.86272,9.56157 0.19939,0.58534 0.48137,1.18922 0.62662,1.34196 l 0.26408,0.27772 0.33887,-0.33888 0.33888,-0.33887 -0.28982,-1.00309 c -0.64721,-2.24006 -1.35319,-3.6252 -4.07471,-7.99463 -2.07652,-3.33388 -2.08949,-3.37084 -1.1824,-3.37084 0.39265,0 0.63193,0.1027 1.30258,0.55904 0.45187,0.30748 0.90156,0.62255 0.99932,0.70017 0.28637,0.22736 2.53014,4.03203 3.3085,5.61011 0.39336,0.79748 0.89597,2.03569 1.11693,2.75158 0.5857,1.8976 0.58763,1.89973 1.22514,1.33999 0.40794,-0.35817 0.41482,-0.37758 0.34964,-0.98605 -0.15204,-1.41922 -0.96762,-3.96633 -1.93473,-6.0423 -0.2697,-0.57892 -0.49036,-1.12005 -0.49036,-1.2025 0,-0.0824 0.14597,-0.31328 0.32437,-0.51295 0.3123,-0.34952 0.33629,-0.35688 0.64415,-0.19781 0.52084,0.26911 1.41409,1.24559 1.79488,1.9621 0.19516,0.36723 0.64355,1.63811 0.99641,2.82419 0.35286,1.18607 0.68185,2.15649 0.73108,2.15649 0.0492,0 0.2562,-0.20926 0.45992,-0.46502 0.94012,-1.18025 1.28101,-1.34456 1.75121,-0.84406 0.30407,0.32367 0.30927,0.74699 0.0195,1.58915 -0.29939,0.8702 -0.28776,1.11128 0.0613,1.27032 0.15693,0.0715 0.35858,0.13 0.4481,0.13 0.22011,0 0.20472,0.29112 -0.0554,1.04712 -0.76943,2.2364 -2.42858,4.20954 -5.04705,6.0022 -2.48738,1.70293 -5.71463,2.76735 -8.77522,2.89428 -1.51818,0.063 -2.40147,-0.11326 -3.15553,-0.62954 -0.57938,-0.39669 -0.60015,-0.74472 -0.0659,-1.10474 0.58363,-0.39332 1.35504,-0.57705 2.96555,-0.70633 5.00149,-0.4015 8.78635,-2.21897 11.53374,-5.53844 0.43119,-0.52097 0.44091,-0.54659 0.12997,-0.34257 -3.41169,2.2386 -7.12897,3.87297 -9.94533,4.37266 -0.84493,0.14991 -1.47231,0.18129 -2.74463,0.13726 -1.74759,-0.0605 -2.79087,-0.27036 -3.99846,-0.80441 -0.66778,-0.29533 -0.75297,-0.44834 -0.70401,-1.26459 l 0.0284,-0.47416 -9.18611,-0.0565 c -5.05237,-0.0311 -12.64079,0.85253 -11.77757,-1.1603 -0.0656,-0.79827 7.90427,-0.82876 11.38548,-0.869 z"
     id="path2161-6-1"
     inkscape:connector-curvature="0"
     sodipodi:nodetypes="sssscscsscsssssscssssssssscsssscssssssssssssssssssssssssscsssscsssssssssssssssssssssssssssssssssssssssssscsssssssssssscsssssscssssssscsssscsssssssssscsssscssscssssssscccsssscsssssssssssssssssssssssssssscsscs"
     inkscape:export-filename="/home/meise/projects/voc/frontends/30c3/content/img/bigplay_png.png"
     inkscape:export-xdpi="90"
     inkscape:export-ydpi="90"
     transform="matrix(0.99000004,0,0,1,0.49749372,100.31192)" />
  <path
     style="fill:#000000;fill-opacity:1;stroke:#000000;stroke-opacity:1;filter:url(#filter3508-8-3)"
     d="m 18.646799,123.31076 c -6.761196,0 -12.2430533,5.58352 -12.2430533,12.47222 0,6.8887 5.4818573,12.47223 12.2430533,12.47223 6.761195,0 12.243056,-5.58353 12.243056,-12.47223 0,-6.8887 -5.481861,-12.47222 -12.243056,-12.47222 z m -5.12153,4.11805 6.868056,4.15278 6.868057,4.15625 -6.965279,3.98264 -6.965279,3.98264 0.09722,-8.13889 0.09722,-8.13542 z"
     id="path3041-7-0"
     inkscape:connector-curvature="0"
     inkscape:export-filename="/home/meise/projects/voc/frontends/30c3/content/img/bigplay_png.png"
     inkscape:export-xdpi="90"
     inkscape:export-ydpi="90" />
</svg>
