<?xml version="1.0" encoding="UTF-8" standalone="no"?>
<!-- Created with Inkscape (http://www.inkscape.org/) -->
<svg
   xmlns:svg="http://www.w3.org/2000/svg"
   xmlns="http://www.w3.org/2000/svg"
   version="1.0"
   width="481.45908"
   height="97.911522"
   id="svg2">
  <defs
     id="defs4">
    <linearGradient
       id="linearGradient5907">
      <stop
         style="stop-color:#00377c;stop-opacity:1"
         offset="0"
         id="stop5909" />
      <stop
         style="stop-color:#00377c;stop-opacity:1"
         offset="1"
         id="stop5911" />
    </linearGradient>
  </defs>
  <g
     transform="translate(-110.57642,-21.63425)"
     id="layer1">
    <g
       transform="translate(53.91242,-560.50423)"
       style="opacity:1;fill:#00377c;fill-opacity:1;stroke:none"
       id="g3883">
      <path
         d="M 539.28125,502.375 C 530.20018,504.76939 522.45271,509.03182 518.46875,515.1875 L 521.6875,503.9375 L 501.25,503.9375 L 484.0625,566.65625 L 504.0625,566.65625 C 509.19859,548.85943 517.12373,528.47986 534.09375,521.15625 L 521.6875,566.65625 L 539.28125,566.65625 C 544.86623,547.57884 554.11093,526.59766 569.28125,521.15625 L 556.46875,566.65625 L 574.0625,566.65625 L 591.25,504.75 L 574.46875,502.375 C 565.61536,504.66892 557.97768,508.70089 553.65625,515.1875 L 556.46875,504.75 L 539.28125,502.375 z "
         transform="translate(-53.126931,79.76348)"
         style="fill:#00377c;fill-opacity:1;stroke:none"
         id="path3885" />
      <path
         d="M 439.25,503.9375 L 422.0625,566.65625 L 473.25,566.65625 L 477.28125,551.90625 L 447.6875,551.90625 L 450.0625,542.40625 L 480.09375,542.40625 L 484.0625,527.5625 L 454.46875,527.5625 L 457.25,518.34375 L 486.5,518.78125 L 490.46875,503.9375 L 439.25,503.9375 z "
         transform="translate(-53.126931,79.76348)"
         style="fill:#00377c;fill-opacity:1;stroke:none"
         id="path3887" />
      <path
         d="M 378.84375,503.9375 L 361.28125,566.65625 L 383.25,566.65625 L 390.09375,542.40625 L 418.46875,542.40625 L 422.5,527.5625 L 394.0625,527.5625 L 396.5,518.34375 L 425.28125,518.34375 L 429.25,503.9375 L 378.84375,503.9375 z "
         transform="translate(-53.126931,79.76348)"
         style="fill:#00377c;fill-opacity:1;stroke:none"
         id="path3889" />
      <path
         d="M 115.704,653.77 L 115.704,653.554 L 115.848,653.482 L 115.848,653.986 L 115.704,653.77 L 115.704,653.77 z "
         style="fill:#00377c;fill-opacity:1;stroke:none"
         id="path3891" />
      <path
         d="M 141.84375,384.5625 L 157.40625,411.34375 L 173.4375,384.5625 L 141.84375,384.5625 z "
         transform="translate(-57.167541,253.50971)"
         style="fill:#00377c;fill-opacity:1;stroke:none"
         id="path3893" />
      <path
         d="M 115.848,653.986 L 147.456,680.05 L 154.656,639.658 L 115.848,653.482 L 115.848,653.986 L 115.848,653.986 z "
         style="fill:#00377c;fill-opacity:1;stroke:none"
         id="path3895" />
      <path
         d="M 213.48,678.466 L 161.064,659.674 L 203.832,624.538 L 213.48,678.466 L 213.48,678.466 z "
         style="fill:#00377c;fill-opacity:1;stroke:none"
         id="path3899" />
      <path
         d="M 295.416,646.426 L 221.04,646.426 L 258.264,583.714 L 295.416,646.426 z "
         style="fill:#00377c;fill-opacity:1;stroke:none"
         id="path3901" />
      <path
         d="M 115.704,653.554 L 115.488,653.626 L 115.704,653.77 L 115.704,653.554 L 115.704,653.554 z "
         style="fill:#00377c;fill-opacity:1;stroke:none"
         id="path3905" />
      <path
         d="M 124.1875,366.21875 L 128.59375,388.53125 L 146.59375,373.84375 L 124.1875,366.21875 z "
         transform="translate(-57.167541,253.50971)"
         style="fill:#00377c;fill-opacity:1;stroke:none"
         id="path3909" />
      <path
         d="M 56.664,618.922 L 59.832,602.146 L 73.44,613.306 L 56.664,618.922 z "
         style="fill:#00377c;fill-opacity:1;stroke:none"
         id="path3917" />
    </g>
  </g>
</svg>

