<?xml version="1.0" encoding="UTF-8" standalone="no"?>
<svg
   xmlns:dc="http://purl.org/dc/elements/1.1/"
   xmlns:cc="http://creativecommons.org/ns#"
   xmlns:rdf="http://www.w3.org/1999/02/22-rdf-syntax-ns#"
   xmlns:svg="http://www.w3.org/2000/svg"
   xmlns="http://www.w3.org/2000/svg"
   xmlns:sodipodi="http://sodipodi.sourceforge.net/DTD/sodipodi-0.dtd"
   xmlns:inkscape="http://www.inkscape.org/namespaces/inkscape"
   id="svg2"
   sodipodi:version="0.32"
   inkscape:version="0.48.4 r9939"
   width="541.60968"
   height="110.144"
   sodipodi:docname="fem_logo.svg"
   inkscape:output_extension="org.inkscape.output.svg.inkscape"
   version="1.0">
  <metadata
     id="metadata415">
    <rdf:RDF>
      <cc:Work
         rdf:about="">
        <dc:format>image/svg+xml</dc:format>
        <dc:type
           rdf:resource="http://purl.org/dc/dcmitype/StillImage" />
      </cc:Work>
    </rdf:RDF>
  </metadata>
  <defs
     id="defs413">
    <inkscape:perspective
       sodipodi:type="inkscape:persp3d"
       inkscape:vp_x="0 : 118.10759 : 1"
       inkscape:vp_y="0 : 1000 : 0"
       inkscape:vp_z="541.60968 : 118.10759 : 1"
       inkscape:persp3d-origin="270.80484 : 78.738393 : 1"
       id="perspective75" />
  </defs>
  <sodipodi:namedview
     inkscape:window-height="761"
     inkscape:window-width="1276"
     inkscape:pageshadow="2"
     inkscape:pageopacity="0.0"
     guidetolerance="10.0"
     gridtolerance="10.0"
     objecttolerance="10.0"
     borderopacity="1.0"
     bordercolor="#666666"
     pagecolor="#ffffff"
     id="base"
     inkscape:zoom="1.359417"
     inkscape:cx="188.45073"
     inkscape:cy="-14.673498"
     inkscape:window-x="0"
     inkscape:window-y="37"
     inkscape:current-layer="g3883"
     showguides="true"
     inkscape:guide-bbox="true"
     showgrid="false"
     fit-margin-top="0"
     fit-margin-left="0"
     fit-margin-right="0"
     fit-margin-bottom="0"
     inkscape:window-maximized="0" />
  <g
     id="g5826"
     style="fill:#000000;fill-opacity:1"
     transform="translate(-27.748989,-256.78482)">
    <g
       transform="translate(-173.80383,62.443036)"
       id="g5811"
       style="fill:#000000;fill-opacity:1" />
    <g
       id="g16009">
      <g
         style="fill:#00267f;fill-opacity:1"
         transform="matrix(1.124934,0,0,1.124934,-96.642185,232.44772)"
         id="layer1">
        <g
           transform="translate(53.91242,-560.50423)"
           style="fill:#00267f;fill-opacity:1;stroke:none"
           id="g3883">
          <path
             d="m 539.28125,502.375 c -9.08107,2.39439 -16.82854,6.65682 -20.8125,12.8125 l 3.21875,-11.25 -20.4375,0 -17.1875,62.71875 20,0 c 5.13609,-17.79682 13.06123,-38.17639 30.03125,-45.5 l -12.40625,45.5 17.59375,0 c 5.58498,-19.07741 14.82968,-40.05859 30,-45.5 l -12.8125,45.5 17.59375,0 L 591.25,504.75 574.46875,502.375 c -8.85339,2.29392 -16.49107,6.32589 -20.8125,12.8125 l 2.8125,-10.4375 -17.1875,-2.375 z"
             transform="translate(-53.126931,79.76348)"
             style="fill:#00099a;fill-opacity:0.6901961;stroke:none"
             id="path3885"
             inkscape:connector-curvature="0" />
          <path
             d="m 439.25,503.9375 -17.1875,62.71875 51.1875,0 4.03125,-14.75 -29.59375,0 2.375,-9.5 30.03125,0 3.96875,-14.84375 -29.59375,0 2.78125,-9.21875 29.25,0.4375 3.96875,-14.84375 -51.21875,0 z"
             transform="translate(-53.126931,79.76348)"
             style="fill:#00099a;fill-opacity:0.6901961;stroke:none"
             id="path3887"
             inkscape:connector-curvature="0" />
          <path
             d="m 378.84375,503.9375 -17.5625,62.71875 21.96875,0 6.84375,-24.25 28.375,0 4.03125,-14.84375 -28.4375,0 2.4375,-9.21875 28.78125,0 3.96875,-14.40625 -50.40625,0 z"
             transform="translate(-53.126931,79.76348)"
             style="fill:#00099a;fill-opacity:0.6901961;stroke:none"
             id="path3889"
             inkscape:connector-curvature="0" />
          <path
             d="m 115.704,653.77 0,-0.216 0.144,-0.072 0,0.504 -0.144,-0.216 0,0 z"
             style="fill:#00099a;fill-opacity:0.6901961;stroke:none"
             id="path3891"
             inkscape:connector-curvature="0" />
          <path
             d="m 141.84375,384.5625 15.5625,26.78125 16.03125,-26.78125 -31.59375,0 z"
             transform="translate(-57.167541,253.50971)"
             style="fill:#00099a;fill-opacity:0.6901961;stroke:none"
             id="path3893"
             inkscape:connector-curvature="0" />
          <path
             d="m 115.848,653.986 31.608,26.064 7.2,-40.392 -38.808,13.824 0,0.504 0,0 z"
             style="fill:#00099a;fill-opacity:0.6901961;stroke:none"
             id="path3895"
             inkscape:connector-curvature="0" />
          <path
             d="m 213.48,678.466 -52.416,-18.792 42.768,-35.136 9.648,53.928 0,0 z"
             style="fill:#00099a;fill-opacity:0.6901961;stroke:none"
             id="path3899"
             inkscape:connector-curvature="0" />
          <path
             d="m 295.416,646.426 -74.376,0 37.224,-62.712 37.152,62.712 z"
             style="fill:#00099a;fill-opacity:0.6901961;stroke:none"
             id="path3901"
             inkscape:connector-curvature="0" />
          <path
             d="m 115.704,653.554 -0.216,0.072 0.216,0.144 0,-0.216 0,0 z"
             style="fill:#00099a;fill-opacity:0.6901961;stroke:none"
             id="path3905"
             inkscape:connector-curvature="0" />
          <path
             d="m 124.1875,366.21875 4.40625,22.3125 18,-14.6875 -22.40625,-7.625 z"
             transform="translate(-57.167541,253.50971)"
             style="fill:#00099a;fill-opacity:0.6901961;stroke:none"
             id="path3909"
             inkscape:connector-curvature="0" />
          <path
             d="m 56.664,618.922 3.168,-16.776 13.608,11.16 -16.776,5.616 z"
             style="fill:#00099a;fill-opacity:0.6901961;stroke:none"
             id="path3917"
             inkscape:connector-curvature="0" />
        </g>
      </g>
    </g>
  </g>
</svg>
